<?xml version="1.0" encoding="UTF-8" standalone="no"?>
<!DOCTYPE svg PUBLIC "-//W3C//DTD SVG 1.1//EN" "http://www.w3.org/Graphics/SVG/1.1/DTD/svg11.dtd">
<svg width="100%" height="100%" viewBox="0 0 190 32" version="1.1" xmlns="http://www.w3.org/2000/svg" xmlns:xlink="http://www.w3.org/1999/xlink" xml:space="preserve" xmlns:serif="http://www.serif.com/" style="fill-rule:evenodd;clip-rule:evenodd;stroke-linejoin:round;stroke-miterlimit:2;">
    <path d="M57.147,29.945C54.551,31.315 51.623,32 48.364,32C45.104,32 42.176,31.315 39.58,29.945C36.984,28.576 34.951,26.674 33.479,24.24C32.008,21.807 31.273,19.06 31.273,16C31.273,12.94 32.008,10.193 33.479,7.76C34.951,5.326 36.984,3.424 39.58,2.055C42.176,0.685 45.104,0 48.364,0C51.623,0 54.551,0.685 57.147,2.055C59.743,3.424 61.777,5.326 63.248,7.76C64.719,10.193 65.454,12.94 65.454,16C65.454,19.06 64.719,21.807 63.248,24.24C61.777,26.674 59.743,28.576 57.147,29.945ZM10.204,31.273L10.204,23.767L14.571,23.767C17.367,23.767 19.803,23.302 21.878,22.371C23.953,21.44 25.553,20.102 26.677,18.356C27.802,16.611 28.364,14.575 28.364,12.247C28.364,9.92 27.802,7.884 26.677,6.138C25.553,4.393 23.953,3.055 21.878,2.124C19.803,1.193 17.367,0.727 14.571,0.727L0,0.727L0,31.273L10.204,31.273ZM13.962,16L10.182,16L10.182,8.727L13.962,8.727C15.369,8.727 16.424,9.045 17.127,9.681C17.83,10.316 18.182,11.211 18.182,12.364C18.182,13.517 17.83,14.411 17.127,15.047C16.424,15.682 15.369,16 13.962,16ZM48.364,23.273C47.073,23.273 45.907,22.96 44.865,22.334C43.824,21.709 42.995,20.822 42.379,19.673C41.763,18.524 41.455,17.178 41.455,15.636C41.455,14.095 41.763,12.749 42.379,11.6C42.995,10.451 43.824,9.564 44.865,8.938C45.907,8.313 47.073,8 48.364,8C49.655,8 50.821,8.313 51.862,8.938C52.904,9.564 53.733,10.451 54.349,11.6C54.965,12.749 55.273,14.095 55.273,15.636C55.273,17.178 54.965,18.524 54.349,19.673C53.733,20.822 52.904,21.709 51.862,22.334C50.821,22.96 49.655,23.273 48.364,23.273ZM85.545,8.713L85.545,31.273L75.183,31.273L75.183,8.713L66.182,8.713L66.182,0.727L94.545,0.727L94.545,8.713L85.545,8.713ZM103.038,0.727L112.346,0.727L112.346,9.212L103.038,9.212L103.038,0.727ZM112.346,17.759L112.346,12.364L103.038,12.364L103.038,17.671L96.369,29.791C96.002,30.457 96.484,31.273 97.245,31.273L118.022,31.273C118.781,31.273 119.263,30.461 118.9,29.795L112.346,17.759ZM146.602,29.945C144.006,31.315 141.078,32 137.818,32C134.559,32 131.631,31.315 129.035,29.945C126.439,28.576 124.405,26.674 122.934,24.24C121.463,21.807 120.727,19.06 120.727,16C120.727,12.94 121.463,10.193 122.934,7.76C124.405,5.326 126.439,3.424 129.035,2.055C131.631,0.685 134.559,0 137.818,0C141.078,0 144.006,0.685 146.602,2.055C149.198,3.424 151.231,5.326 152.702,7.76C154.174,10.193 154.909,12.94 154.909,16C154.909,19.06 154.174,21.807 152.702,24.24C151.231,26.674 149.198,28.576 146.602,29.945ZM137.818,23.273C136.527,23.273 135.361,22.96 134.32,22.334C133.278,21.709 132.449,20.822 131.833,19.673C131.217,18.524 130.909,17.178 130.909,15.636C130.909,14.095 131.217,12.749 131.833,11.6C132.449,10.451 133.278,9.564 134.32,8.938C135.361,8.313 136.527,8 137.818,8C139.109,8 140.275,8.313 141.317,8.938C142.358,9.564 143.187,10.451 143.803,11.6C144.419,12.749 144.727,14.095 144.727,15.636C144.727,17.178 144.419,18.524 143.803,19.673C143.187,20.822 142.358,21.709 141.317,22.334C140.275,22.96 139.109,23.273 137.818,23.273ZM169.212,17.396L169.212,31.273L159.273,31.273L159.273,0.727L167.656,0.727L179.152,14.604L179.152,0.727L189.091,0.727L189.091,31.273L180.707,31.273L169.212,17.396Z" style="fill:rgb(124,0,221);"/>
</svg>
