<?xml version="1.0" encoding="UTF-8" standalone="no"?><!DOCTYPE svg PUBLIC "-//W3C//DTD SVG 1.1//EN" "http://www.w3.org/Graphics/SVG/1.1/DTD/svg11.dtd"><svg width="100%" height="100%" viewBox="0 0 180 180" version="1.1" xmlns="http://www.w3.org/2000/svg" xmlns:xlink="http://www.w3.org/1999/xlink" xml:space="preserve" xmlns:serif="http://www.serif.com/" style="fill-rule:evenodd;clip-rule:evenodd;stroke-linejoin:round;stroke-miterlimit:2;"><path d="M60,16.473c-8.292,-0 -14.365,1.639 -18.219,4.919c-3.854,3.28 -5.782,8.379 -5.782,15.297l0,30.77c0,6.082 -1.021,11.091 -3.065,15.027c-2.043,3.936 -5.634,6.382 -10.774,7.335l0,0.358c5.14,0.955 8.731,3.399 10.774,7.335c2.044,3.936 3.065,8.945 3.065,15.027l0,30.234c0,7.275 1.928,12.553 5.782,15.833c3.854,3.28 9.927,4.919 18.219,4.919l0,4.473c-9.577,-0 -16.759,-2.087 -21.548,-6.262c-4.788,-4.174 -7.182,-10.137 -7.182,-17.889l0,-30.592c0,-7.634 -1.459,-13.06 -4.379,-16.28c-2.92,-3.22 -7.884,-4.83 -14.891,-4.83l-0,-4.294c7.007,-0 11.971,-1.67 14.891,-5.008c2.92,-3.34 4.379,-8.708 4.379,-16.101l0,-30.592c0,-7.752 2.394,-13.716 7.182,-17.89c4.789,-4.175 11.971,-6.262 21.548,-6.262l0,4.473Z" style="fill:#d9ab28;fill-rule:nonzero;"/><path d="M120,163.527c8.292,0 14.365,-1.639 18.219,-4.919c3.854,-3.28 5.782,-8.379 5.782,-15.297l-0,-30.77c-0,-6.082 1.021,-11.091 3.065,-15.027c2.043,-3.936 5.634,-6.382 10.774,-7.335l-0,-0.358c-5.14,-0.955 -8.731,-3.399 -10.774,-7.335c-2.044,-3.936 -3.065,-8.945 -3.065,-15.027l-0,-30.234c-0,-7.275 -1.928,-12.553 -5.782,-15.833c-3.854,-3.28 -9.927,-4.919 -18.219,-4.919l-0,-4.473c9.577,-0 16.759,2.087 21.548,6.262c4.788,4.174 7.182,10.137 7.182,17.889l0,30.592c0,7.634 1.459,13.06 4.379,16.28c2.92,3.22 7.884,4.83 14.891,4.83l0,4.294c-7.007,0 -11.971,1.67 -14.891,5.008c-2.92,3.34 -4.379,8.707 -4.379,16.101l0,30.592c0,7.752 -2.394,13.716 -7.182,17.89c-4.789,4.175 -11.971,6.262 -21.548,6.262l0,-4.473Z" style="fill:#d9ab28;fill-rule:nonzero;"/></svg>