<svg width="48" height="156" viewBox="0 0 48 156" fill="none" xmlns="http://www.w3.org/2000/svg">
<path d="M48 4.47255C39.7078 4.47255 33.635 6.1124 29.7806 9.39211C25.9272 12.6718 23.9994 17.7707 23.9994 24.6886L23.9994 55.4586C23.9994 61.5411 22.9781 66.5503 20.9343 70.4862C18.8906 74.4221 15.2996 76.8675 10.1603 77.8213V78.1787C15.2996 79.1336 18.8906 81.5779 20.9343 85.5138C22.9781 89.4497 23.9994 94.4589 23.9994 100.541L23.9994 130.775C23.9994 138.05 25.9272 143.328 29.7806 146.608C33.635 149.888 39.7078 151.527 48 151.527L48 156C38.423 156 31.241 153.913 26.452 149.738C21.664 145.564 19.27 139.601 19.27 131.849L19.27 101.257C19.27 93.6234 17.8107 88.1971 14.8908 84.9771C11.971 81.7572 7.00739 80.1472 -6.32494e-08 80.1472V75.8528C7.00739 75.8528 11.971 74.1831 14.8908 70.8447C17.8107 67.5053 19.27 62.1375 19.27 54.7438L19.27 24.152C19.27 16.3997 21.664 10.4356 26.452 6.26179C31.241 2.08689 38.423 -7.05888e-07 48 -7.05888e-07L48 4.47255Z" fill="#D9AB28"/>
</svg>
