<?xml version="1.0" encoding="UTF-8" standalone="no"?><!DOCTYPE svg PUBLIC "-//W3C//DTD SVG 1.1//EN" "http://www.w3.org/Graphics/SVG/1.1/DTD/svg11.dtd"><svg width="100%" height="100%" viewBox="0 0 576 512" version="1.1" xmlns="http://www.w3.org/2000/svg" xmlns:xlink="http://www.w3.org/1999/xlink" xml:space="preserve" xmlns:serif="http://www.serif.com/" style="fill-rule:evenodd;clip-rule:evenodd;stroke-linejoin:round;stroke-miterlimit:2;"><path d="M160,256c0,-70.7 57.3,-128 128,-128c70.7,0 128,57.3 128,128c0,70.7 -57.3,128 -128,128c-70.7,0 -128,-57.3 -128,-128Zm128,80c44.2,0 80,-35.8 80,-80c0,-44.2 -35.8,-80 -80,-80l-2.9,0c2.2,5.1 2.9,10.5 2.9,16c0,35.3 -28.7,64 -64,64c-5.5,0 -10.9,-0.7 -16,-2.9c0,1.6 0,2.2 0,2c0,45.1 35.8,80.9 80,80.9Zm-192.58,-223.4c47.08,-43.76 111.78,-80.6 192.58,-80.6c80.8,0 145.5,36.84 192.6,80.6c46.8,43.4 78.1,94.5 92.9,131.1c3.3,7.9 3.3,16.7 0,24.6c-14.8,35.7 -46.1,86.8 -92.9,131.1c-47.1,43.8 -111.8,80.6 -192.6,80.6c-80.8,0 -145.5,-36.8 -192.58,-80.6c-46.8,-44.3 -78.08,-95.4 -92.959,-131.1c-3.281,-7.9 -3.281,-16.7 0,-24.6c14.879,-36.6 46.159,-87.7 92.959,-131.1Zm192.58,-32.6c-65.2,0 -118.8,29.6 -159.9,67.7c-38.5,35.8 -65.08,77.4 -78.66,108.3c13.58,30 40.16,72.5 78.66,108.3c41.1,38.1 94.7,67.7 159.9,67.7c65.2,0 118.8,-29.6 159.9,-67.7c38.5,-35.8 64.2,-78.3 78.7,-108.3c-14.5,-30.9 -40.2,-72.5 -78.7,-108.3c-41.1,-38.1 -94.7,-67.7 -159.9,-67.7Z" style="fill:#fbfffe;fill-rule:nonzero;"/></svg>