<?xml version="1.0" encoding="UTF-8" standalone="no"?><!DOCTYPE svg PUBLIC "-//W3C//DTD SVG 1.1//EN" "http://www.w3.org/Graphics/SVG/1.1/DTD/svg11.dtd"><svg width="100%" height="100%" viewBox="0 0 128 48" version="1.1" xmlns="http://www.w3.org/2000/svg" xmlns:xlink="http://www.w3.org/1999/xlink" xml:space="preserve" xmlns:serif="http://www.serif.com/" style="fill-rule:evenodd;clip-rule:evenodd;stroke-linejoin:round;stroke-miterlimit:2;"><path d="M81.778,24c-0,-7.733 6.366,-14 14.222,-14c7.856,0 14.222,6.267 14.222,14c0,7.733 -6.366,14 -14.222,14c-7.856,0 -14.222,-6.267 -14.222,-14Zm14.222,8.75c4.911,0 8.889,-3.916 8.889,-8.75c-0,-4.834 -3.978,-8.75 -8.889,-8.75l-0.322,0c0.244,0.558 0.322,1.148 0.322,1.75c0,3.861 -3.189,7 -7.111,7c-0.611,0 -1.211,-0.077 -1.778,-0.317c0,0.175 0,0.24 0,0.219c0,4.932 3.978,8.848 8.889,8.848Zm-21.398,-24.434c5.231,-4.787 12.42,-8.816 21.398,-8.816c8.978,0 16.167,4.029 21.4,8.816c5.2,4.747 8.678,10.336 10.322,14.339c0.367,0.864 0.367,1.826 0,2.69c-1.644,3.905 -5.122,9.494 -10.322,14.339c-5.233,4.791 -12.422,8.816 -21.4,8.816c-8.978,-0 -16.167,-4.025 -21.398,-8.816c-5.2,-4.845 -8.675,-10.434 -10.329,-14.339c-0.364,-0.864 -0.364,-1.826 0,-2.69c1.654,-4.003 5.129,-9.593 10.329,-14.339Zm21.398,-3.566c-7.244,-0 -13.2,3.237 -17.767,7.405c-4.277,3.915 -7.231,8.465 -8.74,11.845c1.509,3.281 4.463,7.93 8.74,11.845c4.567,4.167 10.523,7.405 17.767,7.405c7.244,-0 13.2,-3.238 17.767,-7.405c4.277,-3.915 7.133,-8.564 8.744,-11.845c-1.611,-3.38 -4.467,-7.93 -8.744,-11.845c-4.567,-4.168 -10.523,-7.405 -17.767,-7.405Z" style="fill:#fbfffe;fill-rule:nonzero;"/></svg>